<mxfile host="app.diagrams.net" modified="2023-04-23T07:38:40.860Z" agent="Mozilla/5.0 (Macintosh; Intel Mac OS X 10_15_7) AppleWebKit/537.36 (KHTML, like Gecko) Chrome/112.0.0.0 Safari/537.36" etag="oMFx_2B9wT-wvUc6E2iX" version="21.2.1" type="github" pages="3">
  <diagram name="現状" id="e7e014a7-5840-1c2e-5031-d8a46d1fe8dd">
    <mxGraphModel dx="2074" dy="1192" grid="1" gridSize="10" guides="1" tooltips="1" connect="1" arrows="1" fold="1" page="1" pageScale="1" pageWidth="1169" pageHeight="826" background="none" math="0" shadow="0">
      <root>
        <mxCell id="0" />
        <mxCell id="1" parent="0" />
        <mxCell id="dUvF8M2V_EA_DoqasxbO-41" value="&lt;b&gt;ユーザー&lt;/b&gt;" style="shape=umlActor;verticalLabelPosition=bottom;verticalAlign=top;html=1;outlineConnect=0;" parent="1" vertex="1">
          <mxGeometry x="90" y="380" width="30" height="60" as="geometry" />
        </mxCell>
        <mxCell id="man2qqhEB5DTvrfv7Pa3-1" value="&lt;br&gt;&lt;br&gt;&lt;br&gt;&lt;br&gt;&lt;br&gt;ブロックチェーンネットワーク" style="ellipse;shape=cloud;whiteSpace=wrap;html=1;fillColor=#dae8fc;strokeColor=#6c8ebf;verticalAlign=top;fontStyle=1;fontSize=14;" parent="1" vertex="1">
          <mxGeometry x="496.25" y="253" width="323" height="287" as="geometry" />
        </mxCell>
        <mxCell id="man2qqhEB5DTvrfv7Pa3-2" value="ウォレット" style="rounded=1;whiteSpace=wrap;html=1;fontSize=14;fillColor=#f8cecc;strokeColor=#b85450;" parent="1" vertex="1">
          <mxGeometry x="190" y="370" width="80" height="80" as="geometry" />
        </mxCell>
        <mxCell id="man2qqhEB5DTvrfv7Pa3-3" value="フロント&lt;br&gt;エンド" style="rounded=1;whiteSpace=wrap;html=1;fontSize=14;fillColor=#fff2cc;strokeColor=#d6b656;" parent="1" vertex="1">
          <mxGeometry x="353" y="373" width="80" height="80" as="geometry" />
        </mxCell>
        <mxCell id="man2qqhEB5DTvrfv7Pa3-4" value="NFT&lt;br&gt;コントラクト" style="rounded=1;whiteSpace=wrap;html=1;fontSize=14;fillColor=#d5e8d4;strokeColor=#82b366;" parent="1" vertex="1">
          <mxGeometry x="604" y="374" width="107.5" height="80" as="geometry" />
        </mxCell>
        <mxCell id="man2qqhEB5DTvrfv7Pa3-5" value="" style="endArrow=classic;startArrow=classic;html=1;rounded=0;fontSize=14;exitX=1;exitY=0.5;exitDx=0;exitDy=0;" parent="1" source="man2qqhEB5DTvrfv7Pa3-3" target="man2qqhEB5DTvrfv7Pa3-4" edge="1">
          <mxGeometry width="50" height="50" relative="1" as="geometry">
            <mxPoint x="440" y="500" as="sourcePoint" />
            <mxPoint x="490" y="450" as="targetPoint" />
          </mxGeometry>
        </mxCell>
        <mxCell id="man2qqhEB5DTvrfv7Pa3-6" value="" style="endArrow=classic;startArrow=classic;html=1;rounded=0;fontSize=14;exitX=1;exitY=0.5;exitDx=0;exitDy=0;" parent="1" source="man2qqhEB5DTvrfv7Pa3-2" edge="1">
          <mxGeometry width="50" height="50" relative="1" as="geometry">
            <mxPoint x="443" y="423" as="sourcePoint" />
            <mxPoint x="360" y="410" as="targetPoint" />
          </mxGeometry>
        </mxCell>
        <mxCell id="man2qqhEB5DTvrfv7Pa3-10" value="" style="endArrow=classic;startArrow=classic;html=1;rounded=0;fontSize=14;entryX=0;entryY=0.5;entryDx=0;entryDy=0;" parent="1" source="dUvF8M2V_EA_DoqasxbO-41" target="man2qqhEB5DTvrfv7Pa3-2" edge="1">
          <mxGeometry width="50" height="50" relative="1" as="geometry">
            <mxPoint x="280" y="420" as="sourcePoint" />
            <mxPoint x="370" y="420" as="targetPoint" />
          </mxGeometry>
        </mxCell>
        <mxCell id="man2qqhEB5DTvrfv7Pa3-11" value="Dappにアクセス&lt;br&gt;必要に応じて署名" style="text;html=1;strokeColor=none;fillColor=none;align=left;verticalAlign=middle;whiteSpace=wrap;rounded=0;fontSize=14;fontStyle=1" parent="1" vertex="1">
          <mxGeometry x="100" y="320" width="130" height="30" as="geometry" />
        </mxCell>
        <mxCell id="man2qqhEB5DTvrfv7Pa3-12" value="mint 要求" style="text;html=1;strokeColor=none;fillColor=none;align=center;verticalAlign=middle;whiteSpace=wrap;rounded=0;fontSize=14;fontStyle=1" parent="1" vertex="1">
          <mxGeometry x="440" y="370" width="90" height="30" as="geometry" />
        </mxCell>
        <mxCell id="man2qqhEB5DTvrfv7Pa3-13" value="Astar Learningの現状" style="text;html=1;strokeColor=none;fillColor=none;align=left;verticalAlign=middle;whiteSpace=wrap;rounded=0;fontSize=23;fontStyle=1" parent="1" vertex="1">
          <mxGeometry x="30" y="110" width="330" height="60" as="geometry" />
        </mxCell>
        <mxCell id="man2qqhEB5DTvrfv7Pa3-14" value="PSP34準拠" style="text;html=1;strokeColor=none;fillColor=none;align=center;verticalAlign=middle;whiteSpace=wrap;rounded=0;fontSize=14;fontStyle=1" parent="1" vertex="1">
          <mxGeometry x="612.75" y="427" width="90" height="30" as="geometry" />
        </mxCell>
      </root>
    </mxGraphModel>
  </diagram>
  <diagram id="b72MH92Sac5sTVVwrYgV" name="理想">
    <mxGraphModel dx="2074" dy="1192" grid="1" gridSize="10" guides="1" tooltips="1" connect="1" arrows="1" fold="1" page="1" pageScale="1" pageWidth="827" pageHeight="1169" math="0" shadow="0">
      <root>
        <mxCell id="0" />
        <mxCell id="1" parent="0" />
        <mxCell id="LIJdBww6pnUgFBLt4BhZ-1" value="&lt;b&gt;ユーザー&lt;/b&gt;" style="shape=umlActor;verticalLabelPosition=bottom;verticalAlign=top;html=1;outlineConnect=0;" parent="1" vertex="1">
          <mxGeometry x="79" y="270" width="30" height="60" as="geometry" />
        </mxCell>
        <mxCell id="LIJdBww6pnUgFBLt4BhZ-2" value="&lt;br&gt;&lt;br&gt;&lt;br&gt;&lt;br&gt;&lt;br&gt;ブロックチェーンネットワーク" style="ellipse;shape=cloud;whiteSpace=wrap;html=1;fillColor=#dae8fc;strokeColor=#6c8ebf;verticalAlign=top;fontStyle=1;fontSize=14;" parent="1" vertex="1">
          <mxGeometry x="489" y="120" width="319.25" height="400" as="geometry" />
        </mxCell>
        <mxCell id="LIJdBww6pnUgFBLt4BhZ-3" value="ウォレット" style="rounded=1;whiteSpace=wrap;html=1;fontSize=14;fillColor=#f8cecc;strokeColor=#b85450;fontStyle=1" parent="1" vertex="1">
          <mxGeometry x="179" y="260" width="80" height="80" as="geometry" />
        </mxCell>
        <mxCell id="LIJdBww6pnUgFBLt4BhZ-4" value="フロント&lt;br&gt;エンド" style="rounded=1;whiteSpace=wrap;html=1;fontSize=14;fillColor=#fff2cc;strokeColor=#d6b656;fontStyle=1" parent="1" vertex="1">
          <mxGeometry x="342" y="263" width="80" height="80" as="geometry" />
        </mxCell>
        <mxCell id="LIJdBww6pnUgFBLt4BhZ-5" value="NFT&lt;br&gt;コントラクト" style="rounded=1;whiteSpace=wrap;html=1;fontSize=14;fillColor=#d5e8d4;strokeColor=#82b366;" parent="1" vertex="1">
          <mxGeometry x="593" y="264" width="107.5" height="80" as="geometry" />
        </mxCell>
        <mxCell id="LIJdBww6pnUgFBLt4BhZ-7" value="" style="endArrow=classic;startArrow=classic;html=1;rounded=0;fontSize=14;exitX=1;exitY=0.5;exitDx=0;exitDy=0;" parent="1" source="LIJdBww6pnUgFBLt4BhZ-3" edge="1">
          <mxGeometry width="50" height="50" relative="1" as="geometry">
            <mxPoint x="432" y="313" as="sourcePoint" />
            <mxPoint x="339" y="300" as="targetPoint" />
          </mxGeometry>
        </mxCell>
        <mxCell id="LIJdBww6pnUgFBLt4BhZ-8" value="" style="endArrow=classic;startArrow=classic;html=1;rounded=0;fontSize=14;entryX=0;entryY=0.5;entryDx=0;entryDy=0;" parent="1" source="LIJdBww6pnUgFBLt4BhZ-1" target="LIJdBww6pnUgFBLt4BhZ-3" edge="1">
          <mxGeometry width="50" height="50" relative="1" as="geometry">
            <mxPoint x="269" y="310" as="sourcePoint" />
            <mxPoint x="359" y="310" as="targetPoint" />
          </mxGeometry>
        </mxCell>
        <mxCell id="LIJdBww6pnUgFBLt4BhZ-9" value="Dappにアクセス&lt;br&gt;必要に応じて署名" style="text;html=1;strokeColor=none;fillColor=none;align=left;verticalAlign=middle;whiteSpace=wrap;rounded=0;fontSize=14;fontStyle=1" parent="1" vertex="1">
          <mxGeometry x="89" y="220" width="130" height="30" as="geometry" />
        </mxCell>
        <mxCell id="LIJdBww6pnUgFBLt4BhZ-10" value="mint 要求" style="text;html=1;strokeColor=none;fillColor=none;align=center;verticalAlign=middle;whiteSpace=wrap;rounded=0;fontSize=14;fontStyle=1" parent="1" vertex="1">
          <mxGeometry x="459" y="270" width="90" height="30" as="geometry" />
        </mxCell>
        <mxCell id="LIJdBww6pnUgFBLt4BhZ-11" value="Astar Learning の理想系(V2)" style="text;html=1;strokeColor=none;fillColor=none;align=left;verticalAlign=middle;whiteSpace=wrap;rounded=0;fontSize=23;fontStyle=1" parent="1" vertex="1">
          <mxGeometry x="19" y="50" width="361" height="60" as="geometry" />
        </mxCell>
        <mxCell id="LIJdBww6pnUgFBLt4BhZ-12" value="PSP34準拠" style="text;html=1;strokeColor=none;fillColor=none;align=center;verticalAlign=middle;whiteSpace=wrap;rounded=0;fontSize=14;fontStyle=1" parent="1" vertex="1">
          <mxGeometry x="601.75" y="317" width="90" height="30" as="geometry" />
        </mxCell>
        <mxCell id="LIJdBww6pnUgFBLt4BhZ-13" value="コンテンツ&lt;br&gt;コントラクト" style="rounded=1;whiteSpace=wrap;html=1;fontSize=14;fillColor=#d5e8d4;strokeColor=#82b366;fontStyle=1" parent="1" vertex="1">
          <mxGeometry x="593" y="370" width="107.5" height="80" as="geometry" />
        </mxCell>
        <mxCell id="LIJdBww6pnUgFBLt4BhZ-14" value="" style="endArrow=classic;startArrow=classic;html=1;rounded=0;fontSize=14;exitX=1;exitY=0.5;exitDx=0;exitDy=0;entryX=0;entryY=0.5;entryDx=0;entryDy=0;" parent="1" source="LIJdBww6pnUgFBLt4BhZ-4" target="LIJdBww6pnUgFBLt4BhZ-13" edge="1">
          <mxGeometry width="50" height="50" relative="1" as="geometry">
            <mxPoint x="432" y="313" as="sourcePoint" />
            <mxPoint x="603" y="314" as="targetPoint" />
          </mxGeometry>
        </mxCell>
        <mxCell id="LIJdBww6pnUgFBLt4BhZ-15" value="学習コンテンツ表示" style="text;html=1;strokeColor=none;fillColor=none;align=left;verticalAlign=middle;whiteSpace=wrap;rounded=0;fontSize=14;fontStyle=1" parent="1" vertex="1">
          <mxGeometry x="419" y="370" width="110" height="30" as="geometry" />
        </mxCell>
        <mxCell id="LIJdBww6pnUgFBLt4BhZ-16" value="ウォレット" style="rounded=1;whiteSpace=wrap;html=1;fontSize=14;fillColor=#f8cecc;strokeColor=#b85450;fontStyle=1" parent="1" vertex="1">
          <mxGeometry x="179" y="410" width="80" height="80" as="geometry" />
        </mxCell>
        <mxCell id="LIJdBww6pnUgFBLt4BhZ-17" value="&lt;b&gt;コンテンツ作成者&lt;/b&gt;" style="shape=umlActor;verticalLabelPosition=bottom;verticalAlign=top;html=1;outlineConnect=0;" parent="1" vertex="1">
          <mxGeometry x="79" y="420" width="30" height="60" as="geometry" />
        </mxCell>
        <mxCell id="LIJdBww6pnUgFBLt4BhZ-18" value="" style="endArrow=classic;startArrow=classic;html=1;rounded=0;fontSize=14;entryX=0;entryY=0.5;entryDx=0;entryDy=0;" parent="1" source="LIJdBww6pnUgFBLt4BhZ-17" target="LIJdBww6pnUgFBLt4BhZ-16" edge="1">
          <mxGeometry width="50" height="50" relative="1" as="geometry">
            <mxPoint x="109" y="440" as="sourcePoint" />
            <mxPoint x="189" y="310" as="targetPoint" />
          </mxGeometry>
        </mxCell>
        <mxCell id="LIJdBww6pnUgFBLt4BhZ-19" value="" style="endArrow=classic;startArrow=classic;html=1;rounded=0;fontSize=14;entryX=0;entryY=0.5;entryDx=0;entryDy=0;exitX=1;exitY=0.5;exitDx=0;exitDy=0;" parent="1" source="LIJdBww6pnUgFBLt4BhZ-16" target="LIJdBww6pnUgFBLt4BhZ-4" edge="1">
          <mxGeometry width="50" height="50" relative="1" as="geometry">
            <mxPoint x="119" y="460" as="sourcePoint" />
            <mxPoint x="189" y="460" as="targetPoint" />
          </mxGeometry>
        </mxCell>
        <mxCell id="LIJdBww6pnUgFBLt4BhZ-20" value="コンテンツを作成" style="text;html=1;strokeColor=none;fillColor=none;align=left;verticalAlign=middle;whiteSpace=wrap;rounded=0;fontSize=14;fontStyle=1" parent="1" vertex="1">
          <mxGeometry x="279" y="410" width="130" height="30" as="geometry" />
        </mxCell>
        <mxCell id="LIJdBww6pnUgFBLt4BhZ-22" value="" style="endArrow=classic;html=1;rounded=0;fontSize=14;entryX=0.425;entryY=1.013;entryDx=0;entryDy=0;entryPerimeter=0;edgeStyle=orthogonalEdgeStyle;curved=1;exitX=0.25;exitY=1;exitDx=0;exitDy=0;" parent="1" source="LIJdBww6pnUgFBLt4BhZ-13" target="LIJdBww6pnUgFBLt4BhZ-16" edge="1">
          <mxGeometry width="50" height="50" relative="1" as="geometry">
            <mxPoint x="429" y="580" as="sourcePoint" />
            <mxPoint x="489" y="380" as="targetPoint" />
            <Array as="points">
              <mxPoint x="599" y="450" />
              <mxPoint x="599" y="560" />
              <mxPoint x="213" y="560" />
            </Array>
          </mxGeometry>
        </mxCell>
        <mxCell id="LIJdBww6pnUgFBLt4BhZ-23" value="良質な学習コンテンツの作成者にはリワードを支払う" style="text;html=1;strokeColor=none;fillColor=none;align=left;verticalAlign=middle;whiteSpace=wrap;rounded=0;fontSize=14;fontStyle=1" parent="1" vertex="1">
          <mxGeometry x="289" y="570" width="230" height="30" as="geometry" />
        </mxCell>
        <mxCell id="efbRTu68oHlbx-7iIUHC-2" value="" style="endArrow=classic;startArrow=classic;html=1;rounded=0;fontSize=14;exitX=1;exitY=0.5;exitDx=0;exitDy=0;entryX=0;entryY=0.5;entryDx=0;entryDy=0;" parent="1" source="LIJdBww6pnUgFBLt4BhZ-4" target="LIJdBww6pnUgFBLt4BhZ-5" edge="1">
          <mxGeometry width="50" height="50" relative="1" as="geometry">
            <mxPoint x="432" y="313" as="sourcePoint" />
            <mxPoint x="603" y="314" as="targetPoint" />
          </mxGeometry>
        </mxCell>
        <mxCell id="RTFDsmSv1AZK8YgIQjiQ-1" value="dapp Stakingで&lt;br&gt;得た報酬" style="rounded=1;whiteSpace=wrap;html=1;fontSize=14;fillColor=#e1d5e7;strokeColor=#9673a6;fontStyle=1" parent="1" vertex="1">
          <mxGeometry x="593" y="560" width="107.5" height="80" as="geometry" />
        </mxCell>
        <mxCell id="RTFDsmSv1AZK8YgIQjiQ-3" value="" style="endArrow=classic;startArrow=classic;html=1;rounded=0;fontSize=14;entryX=0.5;entryY=1;entryDx=0;entryDy=0;exitX=0.5;exitY=0;exitDx=0;exitDy=0;" parent="1" source="RTFDsmSv1AZK8YgIQjiQ-1" target="LIJdBww6pnUgFBLt4BhZ-13" edge="1">
          <mxGeometry width="50" height="50" relative="1" as="geometry">
            <mxPoint x="509" y="817" as="sourcePoint" />
            <mxPoint x="592" y="670" as="targetPoint" />
          </mxGeometry>
        </mxCell>
        <mxCell id="RTFDsmSv1AZK8YgIQjiQ-4" value="報酬をコンテンツ&lt;br&gt;コントラクトに送金" style="text;html=1;strokeColor=none;fillColor=none;align=left;verticalAlign=middle;whiteSpace=wrap;rounded=0;fontSize=14;fontStyle=1" parent="1" vertex="1">
          <mxGeometry x="659" y="483" width="140" height="40" as="geometry" />
        </mxCell>
        <mxCell id="RTFDsmSv1AZK8YgIQjiQ-5" value="コンテンツを閲覧&lt;br&gt;いいね" style="text;html=1;strokeColor=none;fillColor=none;align=left;verticalAlign=middle;whiteSpace=wrap;rounded=0;fontSize=14;fontStyle=1" parent="1" vertex="1">
          <mxGeometry x="259" y="240" width="130" height="30" as="geometry" />
        </mxCell>
      </root>
    </mxGraphModel>
  </diagram>
  <diagram id="h66j6SNEk0Vg9B7UiVkY" name="コントラクトの設計案">
    <mxGraphModel dx="2074" dy="1192" grid="1" gridSize="10" guides="1" tooltips="1" connect="1" arrows="1" fold="1" page="1" pageScale="1" pageWidth="827" pageHeight="1169" math="0" shadow="0">
      <root>
        <mxCell id="0" />
        <mxCell id="1" parent="0" />
        <mxCell id="LlHpwog_Ih0SbnLz9XF3-1" value="Astar Learning のコントラクト設計案" style="text;html=1;strokeColor=none;fillColor=none;align=left;verticalAlign=middle;whiteSpace=wrap;rounded=0;fontSize=23;fontStyle=1" parent="1" vertex="1">
          <mxGeometry x="30" y="30" width="430" height="60" as="geometry" />
        </mxCell>
        <mxCell id="lunqDyuPndbs6BkX09wb-11" value="コントラクトは2つ。&lt;br style=&quot;font-size: 18px;&quot;&gt;NFTコントラクトとコンテンツコントラクト" style="text;html=1;strokeColor=none;fillColor=none;align=left;verticalAlign=middle;whiteSpace=wrap;rounded=0;fontSize=18;fontStyle=1" parent="1" vertex="1">
          <mxGeometry x="40" y="100" width="400" height="60" as="geometry" />
        </mxCell>
        <mxCell id="mrurAFcFhLq_J1csuuHi-1" value="" style="shape=cube;whiteSpace=wrap;html=1;boundedLbl=1;backgroundOutline=1;darkOpacity=0.05;darkOpacity2=0.1;fillColor=#ffe6cc;strokeColor=#d79b00;" parent="1" vertex="1">
          <mxGeometry x="20" y="220" width="350" height="300" as="geometry" />
        </mxCell>
        <mxCell id="mrurAFcFhLq_J1csuuHi-2" value="" style="shape=cube;whiteSpace=wrap;html=1;boundedLbl=1;backgroundOutline=1;darkOpacity=0.05;darkOpacity2=0.1;fillColor=#e1d5e7;strokeColor=#9673a6;" parent="1" vertex="1">
          <mxGeometry x="420" y="220" width="390" height="580" as="geometry" />
        </mxCell>
        <mxCell id="mrurAFcFhLq_J1csuuHi-3" value="NFTコントラクト" style="text;html=1;strokeColor=none;fillColor=none;align=center;verticalAlign=middle;whiteSpace=wrap;rounded=0;fontStyle=1;fontSize=17;" parent="1" vertex="1">
          <mxGeometry x="130" y="250" width="150" height="30" as="geometry" />
        </mxCell>
        <mxCell id="mrurAFcFhLq_J1csuuHi-4" value="コンテンツコントラクト" style="text;html=1;strokeColor=none;fillColor=none;align=center;verticalAlign=middle;whiteSpace=wrap;rounded=0;fontStyle=1;fontSize=17;" parent="1" vertex="1">
          <mxGeometry x="505" y="250" width="230" height="30" as="geometry" />
        </mxCell>
        <mxCell id="mrurAFcFhLq_J1csuuHi-5" value="【変数】&lt;br&gt;　名前&lt;br&gt;　シンボル&lt;br&gt;　ImageまでのURL" style="text;html=1;strokeColor=none;fillColor=none;align=left;verticalAlign=middle;whiteSpace=wrap;rounded=0;fontStyle=1;fontSize=17;" parent="1" vertex="1">
          <mxGeometry x="50" y="290" width="190" height="80" as="geometry" />
        </mxCell>
        <mxCell id="mrurAFcFhLq_J1csuuHi-6" value="【メソッド】&lt;br&gt;　名前のgetter/setter&lt;br&gt;　シンボルのgetter/setter&lt;br&gt;　ImageまでのURLのgetter/setter&lt;br&gt;&amp;nbsp; &amp;nbsp; mint" style="text;html=1;strokeColor=none;fillColor=none;align=left;verticalAlign=middle;whiteSpace=wrap;rounded=0;fontStyle=1;fontSize=17;" parent="1" vertex="1">
          <mxGeometry x="50" y="400" width="310" height="80" as="geometry" />
        </mxCell>
        <mxCell id="mrurAFcFhLq_J1csuuHi-7" value="【変数】&lt;br&gt;　コンテンツID&lt;br&gt;&amp;nbsp; &amp;nbsp; コンテンツ名&lt;br&gt;　コンテンツ本体(Markdownを想定)&lt;br&gt;&amp;nbsp; &amp;nbsp; いいねの数&lt;br&gt;&amp;nbsp; &amp;nbsp; クイズ(4択用の問題文を配列で持つ)&lt;br&gt;&amp;nbsp; &amp;nbsp; 回答(番号で持つ)&lt;br&gt;&amp;nbsp; &amp;nbsp; ImageまでのURL&lt;br&gt;&amp;nbsp; &amp;nbsp; NFTコントラクトのアドレス&lt;br&gt;&amp;nbsp; &amp;nbsp; 全てのコンテンツのデータを持つ配列" style="text;html=1;strokeColor=none;fillColor=none;align=left;verticalAlign=middle;whiteSpace=wrap;rounded=0;fontStyle=1;fontSize=17;" parent="1" vertex="1">
          <mxGeometry x="450" y="340" width="350" height="80" as="geometry" />
        </mxCell>
        <mxCell id="mrurAFcFhLq_J1csuuHi-8" value="【メソッド】&lt;br&gt;　コンテンツデータ作成メソッド&lt;br&gt;&amp;nbsp; &amp;nbsp; コンテンツデータのgetterメソッド&lt;br&gt;&amp;nbsp; &amp;nbsp; (名前、内容、クイズ内容を取得できる&lt;br&gt;&amp;nbsp; &amp;nbsp; &amp;nbsp;メソッド)&lt;br&gt;&amp;nbsp; &amp;nbsp; &lt;br&gt;&amp;nbsp; &amp;nbsp; NFTコントラクトのsetter/getter&lt;br&gt;&amp;nbsp; &amp;nbsp; ImageまでのURLのsetter/getter&lt;br&gt;　いいねの数を増やすメソッド&lt;br&gt;&amp;nbsp; &amp;nbsp; いいねの数を取得するメソッド&lt;br&gt;&amp;nbsp; &amp;nbsp; 回答を取得するメソッド" style="text;html=1;strokeColor=none;fillColor=none;align=left;verticalAlign=middle;whiteSpace=wrap;rounded=0;fontStyle=1;fontSize=17;" parent="1" vertex="1">
          <mxGeometry x="450" y="500" width="350" height="240" as="geometry" />
        </mxCell>
      </root>
    </mxGraphModel>
  </diagram>
</mxfile>
